<?xml version="1.0" encoding="utf-8"?>
<!-- Generator: Adobe Illustrator 21.0.0, SVG Export Plug-In . SVG Version: 6.00 Build 0)  -->
<svg version="1.1" id="Слой_1" xmlns="http://www.w3.org/2000/svg" xmlns:xlink="http://www.w3.org/1999/xlink" x="0px" y="0px"
	 viewBox="0 0 246 93.2" enable-background="new 0 0 246 93.2" xml:space="preserve">
<g>
	<path fill="#231F20" d="M92.4,49c0,1.6-0.3,3-1,4.2s-1.6,2.2-2.8,3c-1.2,0.8-2.5,1.4-4.1,1.8c-1.6,0.4-3.2,0.6-5,0.6
		c-1.2,0-2.3-0.1-3.4-0.2c-1.1-0.1-2.2-0.4-3.2-0.7s-2.1-0.8-3.1-1.4c-1-0.5-1.9-1.2-2.8-2c-0.1-0.1-0.1-0.2,0-0.4l3.9-5.1
		c0.1-0.1,0.2-0.1,0.4,0c1.3,1,2.6,1.8,3.9,2.3c1.4,0.5,2.8,0.8,4.2,0.8c1,0,1.9-0.1,2.6-0.3s1.2-0.4,1.7-0.7c0.4-0.3,0.7-0.6,0.9-1
		c0.2-0.3,0.3-0.7,0.3-1c0-0.5-0.1-0.9-0.4-1.2c-0.2-0.4-0.6-0.7-1.2-1s-1.3-0.6-2.2-0.9c-0.9-0.3-2.1-0.7-3.4-1
		c-1.5-0.4-2.8-0.9-4-1.4s-2.1-1.1-2.9-1.9c-0.8-0.7-1.4-1.6-1.8-2.6s-0.6-2.2-0.6-3.6c0-1.5,0.3-2.8,0.9-4s1.4-2.2,2.4-3
		s2.3-1.5,3.7-1.9c1.4-0.4,3-0.7,4.7-0.7c1.9,0,3.7,0.2,5.5,0.5s3.6,1.1,5.5,2.3c0.1,0.1,0.2,0.2,0.1,0.3L88,34.7
		c-0.1,0.1-0.2,0.2-0.4,0.1c-1.4-0.9-2.8-1.4-4-1.7c-1.3-0.2-2.5-0.4-3.8-0.4c-1.2,0-2.1,0.2-2.9,0.6c-0.7,0.4-1.1,1-1.1,1.9
		c0,0.4,0.1,0.8,0.4,1.1c0.2,0.3,0.6,0.6,1.2,1c0.6,0.3,1.3,0.6,2.2,0.9c0.9,0.3,2,0.6,3.3,1c2.1,0.6,3.7,1.2,5,1.9
		c1.2,0.7,2.2,1.5,2.9,2.3c0.7,0.8,1.1,1.7,1.3,2.7C92.3,47,92.4,48,92.4,49z"/>
	<path fill="#231F20" d="M131.2,48.3c0,1.8-0.3,3.3-1,4.6s-1.6,2.4-2.8,3.3c-1.2,0.9-2.5,1.5-4,2c-1.5,0.4-3.1,0.7-4.8,0.7
		s-3.3-0.2-4.8-0.7c-1.5-0.4-2.9-1.1-4-2c-1.2-0.9-2.1-2-2.8-3.3c-0.7-1.3-1-2.9-1-4.6V36.2c0-1.8,0.4-3.3,1.1-4.6
		c0.7-1.3,1.7-2.3,2.9-3.2s2.5-1.5,4-1.9s3-0.6,4.5-0.6s3,0.2,4.6,0.7c1.5,0.4,2.9,1.1,4.1,1.9c1.2,0.9,2.2,1.9,2.9,3.3
		c0.7,1.3,1.1,2.9,1.1,4.6L131.2,48.3L131.2,48.3z M123.8,37.8c0-0.9-0.2-1.7-0.5-2.4c-0.3-0.6-0.7-1.2-1.2-1.5
		c-0.5-0.4-1-0.7-1.7-0.9c-0.6-0.2-1.2-0.3-1.8-0.3c-0.6,0-1.2,0.1-1.8,0.3c-0.6,0.2-1.2,0.5-1.7,0.9s-0.9,0.9-1.2,1.5
		c-0.3,0.6-0.5,1.4-0.5,2.4v9.1c0,0.9,0.2,1.7,0.5,2.4c0.3,0.6,0.7,1.2,1.2,1.5c0.5,0.4,1.1,0.7,1.7,0.9s1.2,0.3,1.8,0.3
		c0.6,0,1.2-0.1,1.8-0.3c0.6-0.2,1.2-0.5,1.7-0.9s0.9-0.9,1.2-1.5c0.3-0.6,0.5-1.4,0.5-2.4V37.8z"/>
	<path fill="#231F20" d="M146,58.2V26.5c0-0.1,0.1-0.3,0.3-0.3h6.8c0.1,0,0.3,0.1,0.3,0.3v25.1c0,0.1,0.1,0.3,0.3,0.3h14.8
		c0.1,0,0.3,0.1,0.3,0.3v6.1c0,0.1-0.1,0.3-0.3,0.3h-22.1C146.1,58.5,146,58.4,146,58.2z"/>
	<path fill="#231F20" d="M198.5,52.1h-10c-0.1,0-0.2,0.1-0.2,0.2l-1.8,6c0,0.1-0.1,0.2-0.2,0.2h-7.5c-0.2,0-0.3-0.2-0.2-0.3
		l11.2-31.7c0-0.1,0.1-0.2,0.2-0.2h7.3c0.1,0,0.2,0.1,0.2,0.2l11,31.7c0.1,0.2-0.1,0.3-0.2,0.3h-7.4c-0.1,0-0.2-0.1-0.2-0.2l-1.9-6
		C198.8,52.2,198.7,52.1,198.5,52.1z M190.6,46h6c0.2,0,0.3-0.2,0.2-0.3l-0.6-1.9l-2.6-8.9h-0.2l-2.6,8.9l-0.6,1.9
		C190.3,45.9,190.4,46,190.6,46z"/>
	<path fill="#231F20" d="M235.8,26.2c1.8,0,3.3,0.3,4.5,0.9s2.3,1.4,3.1,2.3c0.8,1,1.4,2.1,1.7,3.3c0.4,1.2,0.5,2.5,0.5,3.7
		c0,0.8-0.1,1.7-0.4,2.6c-0.3,0.9-0.6,1.7-1.1,2.4c-0.5,0.8-1,1.5-1.7,2.2c-0.6,0.6-1.3,1.1-2,1.6c-0.1,0.1-0.2,0.2-0.1,0.3
		l5.5,12.6c0.1,0.2,0,0.4-0.2,0.4h-7.4c-0.1,0-0.2-0.1-0.2-0.2l-4.7-11.6c0-0.1-0.1-0.2-0.2-0.2h-4.2c-0.1,0-0.3,0.1-0.3,0.3v11.4
		c0,0.1-0.1,0.3-0.3,0.3h-6.9c-0.1,0-0.3-0.1-0.3-0.3V26.5c0-0.1,0.1-0.3,0.3-0.3H235.8z M228.7,39.8c0,0.1,0.1,0.3,0.3,0.3h5.3
		c1.4,0,2.4-0.4,3-1.1c0.6-0.7,0.9-1.6,0.9-2.6s-0.3-1.9-0.9-2.6c-0.6-0.7-1.6-1.1-2.9-1.1h-5.3c-0.1,0-0.3,0.1-0.3,0.3v6.8H228.7z"
		/>
</g>
<path fill="#ED2C2F" d="M4.6,93.2c-1,0-2-0.4-2.8-1.2c-1.6-1.6-1.6-4.1,0-5.7L30,58.1c1.6-1.6,4.1-1.6,5.7,0c1.6,1.6,1.6,4.1,0,5.7
	L7.4,92C6.6,92.8,5.6,93.2,4.6,93.2z"/>
<path fill="#ED2C2F" d="M4,37.2c-1,0-2-0.4-2.8-1.2c-1.6-1.6-1.6-4.1,0-5.7L29.5,2.1c1.6-1.6,4.1-1.6,5.7,0c1.6,1.6,1.6,4.1,0,5.7
	L6.8,36C6,36.8,5,37.2,4,37.2z"/>
<path fill="#ED2C2F" d="M11.1,58.4c-1,0-2-0.4-2.8-1.2c-1.6-1.6-1.6-4.1,0-5.7l14.1-14.1c1.6-1.6,4.1-1.6,5.7,0s1.6,4.1,0,5.7
	L13.9,57.3C13.1,58,12.1,58.4,11.1,58.4z"/>
</svg>
